# Blender 4.2.3 LTS
# www.blender.org
mtllib books.mtl
o Shelf.164
v 0.142098 1.389622 2.580328
v 0.142098 -0.555102 2.580330
v -1.481843 1.389622 2.736089
v 0.146154 1.389622 2.626693
v 0.146154 -0.555102 2.626695
v -1.383151 1.389622 2.760490
v -1.383151 -0.555102 2.760492
v -1.355126 1.389622 3.080820
v -1.355125 -0.555102 3.080822
v 0.174179 1.389622 2.947023
v -1.448081 1.389622 3.121989
v -1.448081 -0.555102 3.121990
v 0.178236 1.389622 2.993388
v 0.178236 -0.555102 2.993390
v 0.174179 -0.555102 2.947025
v -1.481843 -0.555102 2.736090
v 0.045361 1.283098 2.635961
v 0.045361 -0.448581 2.635962
v 0.073308 1.283098 2.955398
v -1.383113 1.283098 2.760936
v -1.355166 1.283098 3.080374
v 0.073308 -0.448581 2.955400
v -1.355166 -0.448581 3.080375
v -1.383113 -0.448581 2.760938
vn 0.9962 -0.0000 -0.0872
vn -0.0955 -0.0000 -0.9954
vn -0.0000 1.0000 -0.0000
vn 0.0872 -0.0000 0.9962
vn -0.0872 -0.0000 -0.9962
vn 0.0788 -0.0000 0.9969
vn -0.9962 -0.0000 0.0872
vn -0.0000 -1.0000 -0.0000
vt 0.266738 0.968138
vt 0.266738 0.974359
vt 0.272958 0.968138
vt 0.272958 0.974359
vt 0.279179 0.974359
vt 0.279179 0.968138
vt 0.285400 0.974359
vt 0.285400 0.968138
vt 0.963868 0.950365
vt 0.971229 0.950365
vt 0.971229 0.957727
vt 0.963868 0.957727
vt 0.963868 0.972449
vt 0.971229 0.972449
vt 0.971229 0.979811
vt 0.963868 0.979811
vt 0.971229 0.965088
vt 0.963868 0.965088
s 0
usemtl MainMaterial.001
f 2/1/1 1/2/1 4/2/1 5/1/1
f 2/1/2 16/3/2 3/4/2 1/2/2
f 1/2/3 3/4/3 6/4/3 4/2/3
f 5/1/4 4/2/4 6/4/4 7/3/4
f 7/3/1 6/4/1 8/5/1 9/6/1
f 3/4/3 11/5/3 8/5/3 6/4/3
f 9/6/5 8/5/5 10/7/5 15/8/5
f 11/5/3 13/7/3 10/7/3 8/5/3
f 12/6/6 14/8/6 13/7/6 11/5/6
f 16/3/7 12/6/7 11/5/7 3/4/7
f 13/7/1 14/8/1 15/8/1 10/7/1
f 14/8/8 12/6/8 9/6/8 15/8/8
f 12/6/8 16/3/8 7/3/8 9/6/8
f 16/3/8 2/1/8 5/1/8 7/3/8
f 17/9/1 19/10/1 22/11/1 18/12/1
f 20/13/3 21/14/3 19/15/3 17/16/3
f 18/12/8 22/11/8 23/17/8 24/18/8
o Shelf.165
v 0.102346 1.389622 2.125964
v 0.102347 -0.555104 2.125965
v -1.521595 1.389622 2.281724
v 0.106403 1.389622 2.172328
v 0.106403 -0.555104 2.172330
v -1.422902 1.389622 2.306125
v -1.422902 -0.555104 2.306127
v -1.394877 1.389622 2.626455
v -1.394877 -0.555103 2.626457
v 0.134428 1.389622 2.492658
v -1.487833 1.389622 2.667624
v -1.487833 -0.555103 2.667626
v 0.138485 1.389622 2.539023
v 0.138485 -0.555102 2.539025
v 0.134428 -0.555103 2.492660
v -1.521594 -0.555104 2.281726
v 0.005610 1.283098 2.181596
v 0.005610 -0.448582 2.181597
v 0.033557 1.283098 2.501033
v -1.422865 1.283098 2.306571
v -1.394917 1.283098 2.626009
v 0.033557 -0.448581 2.501035
v -1.394917 -0.448581 2.626010
v -1.422864 -0.448582 2.306573
vn 0.9962 -0.0000 -0.0872
vn -0.0955 -0.0000 -0.9954
vn -0.0000 1.0000 -0.0000
vn 0.0872 -0.0000 0.9962
vn -0.0872 -0.0000 -0.9962
vn 0.0788 -0.0000 0.9969
vn -0.9962 -0.0000 0.0872
vn -0.0000 -1.0000 -0.0000
vt 0.335640 0.965677
vt 0.335640 0.971898
vt 0.341860 0.965677
vt 0.341860 0.971898
vt 0.348081 0.971898
vt 0.348081 0.965677
vt 0.354302 0.971898
vt 0.354302 0.965677
vt 0.963868 0.950365
vt 0.971229 0.950365
vt 0.971229 0.957727
vt 0.963868 0.957727
vt 0.963868 0.972449
vt 0.971229 0.972449
vt 0.971229 0.979811
vt 0.963868 0.979811
vt 0.971229 0.965088
vt 0.963868 0.965088
s 0
usemtl MainMaterial.001
f 26/19/9 25/20/9 28/20/9 29/19/9
f 26/19/10 40/21/10 27/22/10 25/20/10
f 25/20/11 27/22/11 30/22/11 28/20/11
f 29/19/12 28/20/12 30/22/12 31/21/12
f 31/21/9 30/22/9 32/23/9 33/24/9
f 27/22/11 35/23/11 32/23/11 30/22/11
f 33/24/13 32/23/13 34/25/13 39/26/13
f 35/23/11 37/25/11 34/25/11 32/23/11
f 36/24/14 38/26/14 37/25/14 35/23/14
f 40/21/15 36/24/15 35/23/15 27/22/15
f 37/25/9 38/26/9 39/26/9 34/25/9
f 38/26/16 36/24/16 33/24/16 39/26/16
f 36/24/16 40/21/16 31/21/16 33/24/16
f 40/21/16 26/19/16 29/19/16 31/21/16
f 41/27/9 43/28/9 46/29/9 42/30/9
f 44/31/11 45/32/11 43/33/11 41/34/11
f 42/30/16 46/29/16 47/35/16 48/36/16
o Shelf.168
v 0.181850 1.389622 3.034693
v 0.181850 -0.555102 3.034695
v -1.442091 1.389622 3.190454
v 0.185906 1.389622 3.081058
v 0.185906 -0.555102 3.081060
v -1.343399 1.389622 3.214855
v -1.343399 -0.555102 3.214857
v -1.315374 1.389622 3.535185
v -1.315373 -0.555102 3.535187
v 0.213931 1.389622 3.401388
v -1.408329 1.389622 3.576354
v -1.408329 -0.555102 3.576355
v 0.217988 1.389622 3.447753
v 0.217988 -0.555102 3.447755
v 0.213931 -0.555102 3.401390
v -1.442091 -0.555102 3.190455
v 0.085113 1.283098 3.090327
v 0.085113 -0.448581 3.090328
v 0.113061 1.283098 3.409764
v -1.343361 1.283098 3.215302
v -1.315414 1.283098 3.534739
v 0.113061 -0.448581 3.409766
v -1.315414 -0.448581 3.534741
v -1.343361 -0.448581 3.215304
vn 0.9962 -0.0000 -0.0872
vn -0.0955 -0.0000 -0.9954
vn -0.0000 1.0000 -0.0000
vn 0.0872 -0.0000 0.9962
vn -0.0872 -0.0000 -0.9962
vn 0.0788 -0.0000 0.9969
vn -0.9962 -0.0000 0.0872
vn -0.0000 -1.0000 -0.0000
vt 0.153542 0.965677
vt 0.153542 0.971898
vt 0.159762 0.965677
vt 0.159762 0.971898
vt 0.165983 0.971898
vt 0.165983 0.965677
vt 0.172204 0.971898
vt 0.172204 0.965677
vt 0.963868 0.950365
vt 0.971229 0.950365
vt 0.971229 0.957727
vt 0.963868 0.957727
vt 0.963868 0.972449
vt 0.971229 0.972449
vt 0.971229 0.979811
vt 0.963868 0.979811
vt 0.971229 0.965088
vt 0.963868 0.965088
s 0
usemtl MainMaterial.001
f 50/37/17 49/38/17 52/38/17 53/37/17
f 50/37/18 64/39/18 51/40/18 49/38/18
f 49/38/19 51/40/19 54/40/19 52/38/19
f 53/37/20 52/38/20 54/40/20 55/39/20
f 55/39/17 54/40/17 56/41/17 57/42/17
f 51/40/19 59/41/19 56/41/19 54/40/19
f 57/42/21 56/41/21 58/43/21 63/44/21
f 59/41/19 61/43/19 58/43/19 56/41/19
f 60/42/22 62/44/22 61/43/22 59/41/22
f 64/39/23 60/42/23 59/41/23 51/40/23
f 61/43/17 62/44/17 63/44/17 58/43/17
f 62/44/24 60/42/24 57/42/24 63/44/24
f 60/42/24 64/39/24 55/39/24 57/42/24
f 64/39/24 50/37/24 53/37/24 55/39/24
f 65/45/17 67/46/17 70/47/17 66/48/17
f 68/49/19 69/50/19 67/51/19 65/52/19
f 66/48/24 70/47/24 71/53/24 72/54/24
o Shelf.170
v 0.221602 1.389622 3.489060
v 0.221602 -0.555102 3.489062
v -1.402339 1.389622 3.644820
v 0.225658 1.389622 3.535425
v 0.225658 -0.555102 3.535427
v -1.303647 1.389622 3.669222
v -1.303647 -0.555102 3.669223
v -1.275622 1.389622 3.989552
v -1.275621 -0.555102 3.989553
v 0.253683 1.389622 3.855755
v -1.368577 1.389622 4.030720
v -1.368577 -0.555102 4.030722
v 0.257740 1.389622 3.902119
v 0.257740 -0.555102 3.902121
v 0.253683 -0.555102 3.855757
v -1.402339 -0.555102 3.644822
v 0.124865 1.283098 3.544692
v 0.124865 -0.448581 3.544693
v 0.152812 1.283098 3.864129
v -1.303609 1.283098 3.669667
v -1.275662 1.283098 3.989105
v 0.152813 -0.448581 3.864131
v -1.275662 -0.448581 3.989106
v -1.303609 -0.448581 3.669669
vn 0.9962 -0.0000 -0.0872
vn -0.0955 -0.0000 -0.9954
vn -0.0000 1.0000 -0.0000
vn 0.0872 -0.0000 0.9962
vn -0.0872 -0.0000 -0.9962
vn 0.0788 -0.0000 0.9969
vn -0.9962 -0.0000 0.0872
vn -0.0000 -1.0000 -0.0000
vt 0.015738 0.975520
vt 0.015738 0.981741
vt 0.021959 0.975520
vt 0.021959 0.981741
vt 0.028179 0.981741
vt 0.028179 0.975520
vt 0.034400 0.981741
vt 0.034400 0.975520
vt 0.963868 0.950365
vt 0.971229 0.950365
vt 0.971229 0.957727
vt 0.963868 0.957727
vt 0.963868 0.972449
vt 0.971229 0.972449
vt 0.971229 0.979811
vt 0.963868 0.979811
vt 0.971229 0.965088
vt 0.963868 0.965088
s 0
usemtl MainMaterial.001
f 74/55/25 73/56/25 76/56/25 77/55/25
f 74/55/26 88/57/26 75/58/26 73/56/26
f 73/56/27 75/58/27 78/58/27 76/56/27
f 77/55/28 76/56/28 78/58/28 79/57/28
f 79/57/25 78/58/25 80/59/25 81/60/25
f 75/58/27 83/59/27 80/59/27 78/58/27
f 81/60/29 80/59/29 82/61/29 87/62/29
f 83/59/27 85/61/27 82/61/27 80/59/27
f 84/60/30 86/62/30 85/61/30 83/59/30
f 88/57/31 84/60/31 83/59/31 75/58/31
f 85/61/25 86/62/25 87/62/25 82/61/25
f 86/62/32 84/60/32 81/60/32 87/62/32
f 84/60/32 88/57/32 79/57/32 81/60/32
f 88/57/32 74/55/32 77/55/32 79/57/32
f 89/63/25 91/64/25 94/65/25 90/66/25
f 92/67/27 93/68/27 91/69/27 89/70/27
f 90/66/32 94/65/32 95/71/32 96/72/32
o Shelf.172
v 0.261354 1.389624 3.943425
v 0.261354 -0.555101 3.943427
v -1.362587 1.389624 4.099185
v 0.265410 1.389624 3.989790
v 0.265410 -0.555101 3.989791
v -1.263895 1.389624 4.123586
v -1.263895 -0.555101 4.123588
v -1.235870 1.389625 4.443917
v -1.235869 -0.555101 4.443919
v 0.293435 1.389625 4.310120
v -1.328825 1.389625 4.485085
v -1.328825 -0.555101 4.485087
v 0.297492 1.389625 4.356484
v 0.297492 -0.555101 4.356486
v 0.293435 -0.555101 4.310122
v -1.362587 -0.555101 4.099187
v 0.164617 1.283098 3.999056
v 0.164617 -0.448581 3.999058
v 0.192565 1.283099 4.318494
v -1.263857 1.283098 4.124032
v -1.235910 1.283099 4.443470
v 0.192565 -0.448580 4.318495
v -1.235910 -0.448580 4.443471
v -1.263857 -0.448581 4.124033
vn 0.9962 -0.0000 -0.0872
vn -0.0955 -0.0000 -0.9954
vn -0.0000 1.0000 -0.0000
vn 0.0872 -0.0000 0.9962
vn -0.0872 -0.0000 -0.9962
vn 0.0788 -0.0000 0.9969
vn -0.9962 -0.0000 0.0872
vn -0.0000 -1.0000 -0.0000
vt 0.901620 0.977981
vt 0.901620 0.984202
vt 0.907840 0.977981
vt 0.907840 0.984202
vt 0.914061 0.984202
vt 0.914061 0.977981
vt 0.920282 0.984202
vt 0.920282 0.977981
vt 0.963868 0.950365
vt 0.971229 0.950365
vt 0.971229 0.957727
vt 0.963868 0.957727
vt 0.963868 0.972449
vt 0.971229 0.972449
vt 0.971229 0.979811
vt 0.963868 0.979811
vt 0.971229 0.965088
vt 0.963868 0.965088
s 0
usemtl MainMaterial.001
f 98/73/33 97/74/33 100/74/33 101/73/33
f 98/73/34 112/75/34 99/76/34 97/74/34
f 97/74/35 99/76/35 102/76/35 100/74/35
f 101/73/36 100/74/36 102/76/36 103/75/36
f 103/75/33 102/76/33 104/77/33 105/78/33
f 99/76/35 107/77/35 104/77/35 102/76/35
f 105/78/37 104/77/37 106/79/37 111/80/37
f 107/77/35 109/79/35 106/79/35 104/77/35
f 108/78/38 110/80/38 109/79/38 107/77/38
f 112/75/39 108/78/39 107/77/39 99/76/39
f 109/79/33 110/80/33 111/80/33 106/79/33
f 110/80/40 108/78/40 105/78/40 111/80/40
f 108/78/40 112/75/40 103/75/40 105/78/40
f 112/75/40 98/73/40 101/73/40 103/75/40
f 113/81/33 115/82/33 118/83/33 114/84/33
f 116/85/35 117/86/35 115/87/35 113/88/35
f 114/84/40 118/83/40 119/89/40 120/90/40
o Shelf.174
v 0.301104 1.389624 4.397791
v 0.301105 -0.555102 4.397793
v -1.322836 1.389624 4.553551
v 0.305161 1.389624 4.444156
v 0.305161 -0.555102 4.444158
v -1.224144 1.389624 4.577952
v -1.224144 -0.555102 4.577954
v -1.196119 1.389624 4.898283
v -1.196118 -0.555101 4.898284
v 0.333186 1.389624 4.764486
v -1.289074 1.389624 4.939451
v -1.289074 -0.555100 4.939453
v 0.337243 1.389624 4.810851
v 0.337243 -0.555100 4.810852
v 0.333186 -0.555101 4.764488
v -1.322836 -0.555102 4.553553
v 0.204368 1.283099 4.453422
v 0.204368 -0.448580 4.453424
v 0.232315 1.283100 4.772860
v -1.224106 1.283099 4.578397
v -1.196159 1.283100 4.897835
v 0.232316 -0.448579 4.772861
v -1.196159 -0.448579 4.897837
v -1.224106 -0.448580 4.578399
vn 0.9962 -0.0000 -0.0872
vn -0.0955 -0.0000 -0.9954
vn -0.0000 1.0000 -0.0000
vn 0.0872 -0.0000 0.9962
vn -0.0872 -0.0000 -0.9962
vn 0.0788 -0.0000 0.9969
vn -0.9962 -0.0000 0.0872
vn -0.0000 -1.0000 -0.0000
vt 0.648159 0.968138
vt 0.648159 0.974359
vt 0.654380 0.968138
vt 0.654380 0.974359
vt 0.660600 0.974359
vt 0.660600 0.968138
vt 0.666821 0.974359
vt 0.666821 0.968138
vt 0.963868 0.950365
vt 0.971229 0.950365
vt 0.971229 0.957727
vt 0.963868 0.957727
vt 0.963868 0.972449
vt 0.971229 0.972449
vt 0.971229 0.979811
vt 0.963868 0.979811
vt 0.971229 0.965088
vt 0.963868 0.965088
s 0
usemtl MainMaterial.001
f 122/91/41 121/92/41 124/92/41 125/91/41
f 122/91/42 136/93/42 123/94/42 121/92/42
f 121/92/43 123/94/43 126/94/43 124/92/43
f 125/91/44 124/92/44 126/94/44 127/93/44
f 127/93/41 126/94/41 128/95/41 129/96/41
f 123/94/43 131/95/43 128/95/43 126/94/43
f 129/96/45 128/95/45 130/97/45 135/98/45
f 131/95/43 133/97/43 130/97/43 128/95/43
f 132/96/46 134/98/46 133/97/46 131/95/46
f 136/93/47 132/96/47 131/95/47 123/94/47
f 133/97/41 134/98/41 135/98/41 130/97/41
f 134/98/48 132/96/48 129/96/48 135/98/48
f 132/96/48 136/93/48 127/93/48 129/96/48
f 136/93/48 122/91/48 125/91/48 127/93/48
f 137/99/41 139/100/41 142/101/41 138/102/41
f 140/103/43 141/104/43 139/105/43 137/106/43
f 138/102/48 142/101/48 143/107/48 144/108/48
o Shelf.176
v -0.408499 -0.175624 -1.172403
v 0.163527 -0.162136 0.686240
v -1.967692 -0.161993 -0.692636
v -0.408594 -0.129084 -1.172711
v 0.163432 -0.115596 0.685931
v -1.875825 -0.129083 -0.721149
v -1.303799 -0.115595 1.137494
v -1.876481 0.192462 -0.723281
v -1.304455 0.205951 1.135363
v -0.409250 0.192462 -1.174843
v -1.968482 0.225372 -0.695205
v -1.396457 0.238860 1.163439
v -0.409345 0.239004 -1.175152
v 0.162681 0.252491 0.683492
v 0.162776 0.205950 0.683800
v -1.395666 -0.148505 1.166007
v -0.474001 -0.127897 -1.041134
v 0.035359 -0.115887 0.613895
v -0.474655 0.192753 -1.043260
v -1.844494 -0.127896 -0.619344
v -1.845149 0.192753 -0.621470
v 0.034705 0.204763 0.611769
v -1.335788 0.204764 1.033559
v -1.335134 -0.115886 1.035685
vn 0.9558 -0.0000 -0.2941
vn -0.0059 -0.9999 0.0091
vn -0.2941 -0.0069 -0.9557
vn -0.0020 1.0000 -0.0066
vn 0.0020 -1.0000 0.0066
vn -0.0100 0.9999 -0.0042
vn -0.9558 -0.0000 0.2941
vn 0.2941 0.0069 0.9557
vt 0.354072 0.975004
vt 0.354072 0.964015
vt 0.343083 0.975004
vt 0.343083 0.964015
vt 0.332094 0.964015
vt 0.332094 0.975004
vt 0.321105 0.964015
vt 0.321105 0.975004
vt 0.960967 0.946145
vt 0.969208 0.946145
vt 0.969208 0.954386
vt 0.960967 0.954386
vt 0.960967 0.970868
vt 0.969208 0.970868
vt 0.969208 0.979110
vt 0.960967 0.979110
vt 0.969208 0.962627
vt 0.960967 0.962627
s 0
usemtl MainMaterial.001
f 146/109/49 145/110/49 148/110/49 149/109/49
f 146/109/50 160/111/50 147/112/50 145/110/50
f 145/110/51 147/112/51 150/112/51 148/110/51
f 149/109/52 148/110/52 150/112/52 151/111/52
f 151/111/49 150/112/49 152/113/49 153/114/49
f 147/112/51 155/113/51 152/113/51 150/112/51
f 153/114/53 152/113/53 154/115/53 159/116/53
f 155/113/51 157/115/51 154/115/51 152/113/51
f 156/114/54 158/116/54 157/115/54 155/113/54
f 160/111/55 156/114/55 155/113/55 147/112/55
f 157/115/49 158/116/49 159/116/49 154/115/49
f 158/116/56 156/114/56 153/114/56 159/116/56
f 156/114/56 160/111/56 151/111/56 153/114/56
f 160/111/56 146/109/56 149/109/56 151/111/56
f 161/117/49 163/118/49 166/119/49 162/120/49
f 164/121/51 165/122/51 163/123/51 161/124/51
f 162/120/56 166/119/56 167/125/56 168/126/56
o Shelf.178
v -0.825968 -0.588349 -1.265803
v 0.335678 -0.574861 0.293796
v -2.134330 -0.574718 -0.291405
v -0.826161 -0.541809 -1.266062
v 0.335485 -0.528321 0.293537
v -2.057323 -0.541808 -0.349047
v -0.895677 -0.528320 1.210551
v -2.058655 -0.220262 -0.350835
v -0.897009 -0.206773 1.208763
v -0.827493 -0.220262 -1.267850
v -2.135935 -0.187353 -0.293560
v -0.974288 -0.173865 1.266039
v -0.827686 -0.173722 -1.268109
v 0.333960 -0.160234 0.291489
v 0.334153 -0.206774 0.291748
v -0.972683 -0.561230 1.268193
v -0.843708 -0.540622 -1.120175
v 0.190680 -0.528612 0.268569
v -0.845036 -0.219972 -1.121959
v -1.993696 -0.540621 -0.263621
v -1.995025 -0.219970 -0.265405
v 0.189351 -0.207961 0.266785
v -0.960637 -0.207960 1.123339
v -0.959309 -0.528610 1.125123
vn 0.8020 -0.0000 -0.5973
vn -0.0026 -0.9999 0.0106
vn -0.5973 -0.0069 -0.8020
vn -0.0041 1.0000 -0.0056
vn 0.0041 -1.0000 0.0056
vn -0.0108 0.9999 -0.0006
vn -0.8020 -0.0000 0.5973
vn 0.5973 0.0069 0.8020
vt 0.299935 0.975004
vt 0.299935 0.964015
vt 0.288946 0.975004
vt 0.288946 0.964015
vt 0.277957 0.964015
vt 0.277957 0.975004
vt 0.266967 0.964015
vt 0.266967 0.975004
vt 0.960967 0.946145
vt 0.969208 0.946145
vt 0.969208 0.954386
vt 0.960967 0.954386
vt 0.960967 0.970868
vt 0.969208 0.970868
vt 0.969208 0.979110
vt 0.960967 0.979110
vt 0.969208 0.962627
vt 0.960967 0.962627
s 0
usemtl MainMaterial.001
f 170/127/57 169/128/57 172/128/57 173/127/57
f 170/127/58 184/129/58 171/130/58 169/128/58
f 169/128/59 171/130/59 174/130/59 172/128/59
f 173/127/60 172/128/60 174/130/60 175/129/60
f 175/129/57 174/130/57 176/131/57 177/132/57
f 171/130/59 179/131/59 176/131/59 174/130/59
f 177/132/61 176/131/61 178/133/61 183/134/61
f 179/131/59 181/133/59 178/133/59 176/131/59
f 180/132/62 182/134/62 181/133/62 179/131/62
f 184/129/63 180/132/63 179/131/63 171/130/63
f 181/133/57 182/134/57 183/134/57 178/133/57
f 182/134/64 180/132/64 177/132/64 183/134/64
f 180/132/64 184/129/64 175/129/64 177/132/64
f 184/129/64 170/127/64 173/127/64 175/129/64
f 185/135/57 187/136/57 190/137/57 186/138/57
f 188/139/59 189/140/59 187/141/59 185/142/59
f 186/138/64 190/137/64 191/143/64 192/144/64
o Shelf.180
v -1.211610 0.254499 -1.224998
v 0.369770 0.267987 -0.093185
v -2.161137 0.268131 0.101522
v -1.211873 0.301040 -1.225186
v 0.369507 0.314528 -0.093373
v -2.105338 0.301040 0.023169
v -0.523958 0.314528 1.154983
v -2.107152 0.622587 0.021871
v -0.525772 0.636074 1.153684
v -1.213686 0.622587 -1.226484
v -2.163321 0.655495 0.099958
v -0.581941 0.668984 1.231772
v -1.213949 0.669126 -1.226672
v 0.367431 0.682614 -0.094859
v 0.367694 0.636074 -0.094671
v -0.579756 0.281620 1.233335
v -1.184165 0.302227 -1.080885
v 0.223975 0.314237 -0.073062
v -1.185973 0.622877 -1.082180
v -2.018723 0.302227 0.085163
v -2.020531 0.622877 0.083869
v 0.222166 0.634888 -0.074357
v -0.612391 0.634888 1.091692
v -0.610583 0.314237 1.092986
vn 0.5820 -0.0000 -0.8132
vn 0.0008 -0.9999 0.0108
vn -0.8132 -0.0069 -0.5820
vn -0.0056 1.0000 -0.0040
vn 0.0056 -1.0000 0.0040
vn -0.0105 0.9999 0.0028
vn -0.5820 -0.0000 0.8132
vn 0.8132 0.0069 0.5820
vt 0.541091 0.975004
vt 0.541091 0.964015
vt 0.530102 0.975004
vt 0.530102 0.964015
vt 0.519113 0.964015
vt 0.519113 0.975004
vt 0.508124 0.964015
vt 0.508124 0.975004
vt 0.960967 0.946145
vt 0.969208 0.946145
vt 0.969208 0.954386
vt 0.960967 0.954386
vt 0.960967 0.970868
vt 0.969208 0.970868
vt 0.969208 0.979110
vt 0.960967 0.979110
vt 0.969208 0.962627
vt 0.960967 0.962627
s 0
usemtl MainMaterial.001
f 194/145/65 193/146/65 196/146/65 197/145/65
f 194/145/66 208/147/66 195/148/66 193/146/66
f 193/146/67 195/148/67 198/148/67 196/146/67
f 197/145/68 196/146/68 198/148/68 199/147/68
f 199/147/65 198/148/65 200/149/65 201/150/65
f 195/148/67 203/149/67 200/149/67 198/148/67
f 201/150/69 200/149/69 202/151/69 207/152/69
f 203/149/67 205/151/67 202/151/67 200/149/67
f 204/150/70 206/152/70 205/151/70 203/149/70
f 208/147/71 204/150/71 203/149/71 195/148/71
f 205/151/65 206/152/65 207/152/65 202/151/65
f 206/152/72 204/150/72 201/150/72 207/152/72
f 204/150/72 208/147/72 199/147/72 201/150/72
f 208/147/72 194/145/72 197/145/72 199/147/72
f 209/153/65 211/154/65 214/155/65 210/156/65
f 212/157/67 213/158/67 211/159/67 209/160/67
f 210/156/72 214/155/72 215/161/72 216/162/72
o Book_on_Bed.001
v -1.032441 -0.798469 -5.284848
v -1.034780 -0.383842 -5.286522
v 0.548939 -0.784981 -4.153034
v 0.546601 -0.370354 -4.154708
v -1.981966 -0.784838 -3.958326
v -1.984151 -0.397473 -3.959890
v -0.400586 -0.771349 -2.826512
v -0.402771 -0.383985 -2.828075
v -1.032704 -0.751929 -5.285036
v -1.034517 -0.430383 -5.286334
v 0.548677 -0.738441 -4.153222
v 0.546863 -0.416895 -4.154520
v -1.926169 -0.751929 -4.036679
v -1.927982 -0.430382 -4.037977
v -0.344788 -0.738441 -2.904865
v -0.346602 -0.416894 -2.906163
v -1.004993 -0.750742 -5.140734
v -1.006802 -0.430092 -5.142028
v 0.403146 -0.738731 -4.132911
v 0.401337 -0.418082 -4.134205
v -1.839550 -0.750742 -3.974684
v -1.841359 -0.430092 -3.975979
v -0.431411 -0.738731 -2.966861
v -0.433219 -0.418081 -2.968155
vn -0.5820 -0.0000 0.8132
vn 0.0008 -0.9999 0.0108
vn -0.0105 0.9999 0.0028
vn 0.5820 -0.0000 -0.8132
vn -0.0056 1.0000 -0.0040
vn 0.0056 -1.0000 0.0040
vn 0.8132 0.0069 0.5820
vn -0.8132 -0.0069 -0.5820
vt 0.338517 0.783203
vt 0.348983 0.783203
vt 0.348983 0.793670
vt 0.338517 0.793670
vt 0.328050 0.783203
vt 0.328050 0.793670
vt 0.359450 0.783203
vt 0.359450 0.793670
vt 0.965099 0.952194
vt 0.972401 0.952194
vt 0.972401 0.959495
vt 0.965099 0.959495
vt 0.972401 0.966797
vt 0.965099 0.966797
vt 0.965099 0.974098
vt 0.972401 0.974098
vt 0.972401 0.981400
vt 0.965099 0.981400
s 0
usemtl MainMaterial
f 223/163/73 224/164/73 222/165/73 221/166/73
f 219/167/74 223/163/74 221/166/74 217/168/74
f 224/164/75 220/169/75 218/170/75 222/165/75
f 231/163/76 229/166/76 230/165/76 232/164/76
f 227/167/77 225/168/77 229/166/77 231/163/77
f 232/164/78 230/165/78 226/170/78 228/169/78
f 219/167/76 217/168/76 225/168/76 227/167/76
f 218/170/76 220/169/76 228/169/76 226/170/76
f 223/163/79 219/167/79 227/167/79 231/163/79
f 220/169/79 224/164/79 232/164/79 228/169/79
f 224/164/79 223/163/79 231/163/79 232/164/79
f 221/166/80 222/165/80 230/165/80 229/166/80
f 217/168/80 221/166/80 229/166/80 225/168/80
f 222/165/80 218/170/80 226/170/80 230/165/80
f 233/171/76 234/172/76 236/173/76 235/174/76
f 235/174/79 236/173/79 240/175/79 239/176/79
f 237/177/80 238/178/80 234/179/80 233/180/80
